<svg width="192" height="48" viewBox="0 0 192 48" fill="none" xmlns="http://www.w3.org/2000/svg">
<path d="M15 8.42005L24 13.62L33 8.42005M15 39.5801V29.2001L6 24M42 24L33 29.2001V39.5801M6.54 13.92L24 24.0201L41.46 13.92M24 44.16V24M42 32V16C41.9993 15.2986 41.8141 14.6097 41.4631 14.0024C41.112 13.3951 40.6075 12.8908 40 12.54L26 4.54005C25.3919 4.18898 24.7021 4.00415 24 4.00415C23.2979 4.00415 22.6081 4.18898 22 4.54005L8 12.54C7.39253 12.8908 6.88796 13.3951 6.53692 14.0024C6.18589 14.6097 6.00072 15.2986 6 16V32C6.00072 32.7015 6.18589 33.3904 6.53692 33.9977C6.88796 34.605 7.39253 35.1093 8 35.46L22 43.46C22.6081 43.8111 23.2979 43.9959 24 43.9959C24.7021 43.9959 25.3919 43.8111 26 43.46L40 35.46C40.6075 35.1093 41.112 34.605 41.4631 33.9977C41.8141 33.3904 41.9993 32.7015 42 32Z" stroke="#1A4F83" stroke-width="2" stroke-linecap="round" stroke-linejoin="round"/>
<path d="M61.9176 33V15.5455H68.3097C69.5483 15.5455 70.5739 15.75 71.3864 16.1591C72.1989 16.5625 72.8068 17.1108 73.2102 17.804C73.6136 18.4915 73.8153 19.267 73.8153 20.1307C73.8153 20.858 73.6818 21.4716 73.4148 21.9716C73.1477 22.4659 72.7898 22.8636 72.3409 23.1648C71.8977 23.4602 71.4091 23.6761 70.875 23.8125V23.983C71.4545 24.0114 72.0199 24.1989 72.571 24.5455C73.1278 24.8864 73.5881 25.3722 73.9517 26.0028C74.3153 26.6335 74.4972 27.4006 74.4972 28.304C74.4972 29.196 74.2869 29.9972 73.8665 30.7074C73.4517 31.4119 72.8097 31.9716 71.9403 32.3864C71.071 32.7955 69.9602 33 68.608 33H61.9176ZM64.5511 30.7415H68.3523C69.6136 30.7415 70.517 30.4972 71.0625 30.0085C71.608 29.5199 71.8807 28.9091 71.8807 28.1761C71.8807 27.625 71.7415 27.1193 71.4631 26.6591C71.1847 26.1989 70.7869 25.8324 70.2699 25.5597C69.7585 25.2869 69.1506 25.1506 68.446 25.1506H64.5511V30.7415ZM64.5511 23.0966H68.0795C68.6705 23.0966 69.2017 22.983 69.6733 22.7557C70.1506 22.5284 70.5284 22.2102 70.8068 21.8011C71.0909 21.3864 71.233 20.8977 71.233 20.3352C71.233 19.6136 70.9801 19.0085 70.4744 18.5199C69.9688 18.0312 69.1932 17.7869 68.1477 17.7869H64.5511V23.0966ZM77.4162 33V19.9091H79.8793V21.9886H80.0156C80.2543 21.2841 80.6747 20.7301 81.277 20.3267C81.8849 19.9176 82.5724 19.7131 83.3395 19.7131C83.4986 19.7131 83.6861 19.7187 83.902 19.7301C84.1236 19.7415 84.2969 19.7557 84.4219 19.7727V22.2102C84.3196 22.1818 84.1378 22.1506 83.8764 22.1165C83.6151 22.0767 83.3537 22.0568 83.0923 22.0568C82.4901 22.0568 81.9531 22.1847 81.4815 22.4403C81.0156 22.6903 80.6463 23.0398 80.3736 23.4886C80.1009 23.9318 79.9645 24.4375 79.9645 25.0057V33H77.4162ZM90.3196 33.2898C89.4901 33.2898 88.7401 33.1364 88.0696 32.8295C87.3991 32.517 86.8679 32.0653 86.4759 31.4744C86.0895 30.8835 85.8963 30.1591 85.8963 29.3011C85.8963 28.5625 86.0384 27.9545 86.3224 27.4773C86.6065 27 86.9901 26.6222 87.473 26.3438C87.956 26.0653 88.4957 25.8551 89.0923 25.7131C89.6889 25.571 90.2969 25.4631 90.9162 25.3892C91.7003 25.2983 92.3366 25.2244 92.8253 25.1676C93.3139 25.1051 93.669 25.0057 93.8906 24.8693C94.1122 24.733 94.223 24.5114 94.223 24.2045V24.1449C94.223 23.4006 94.0128 22.8239 93.5923 22.4148C93.1776 22.0057 92.5582 21.8011 91.7344 21.8011C90.8764 21.8011 90.2003 21.9915 89.706 22.3722C89.2173 22.7472 88.8793 23.1648 88.6918 23.625L86.2969 23.0795C86.581 22.2841 86.9957 21.642 87.5412 21.1534C88.0923 20.6591 88.7259 20.3011 89.4418 20.0795C90.1577 19.8523 90.9105 19.7386 91.7003 19.7386C92.223 19.7386 92.777 19.8011 93.3622 19.9261C93.9531 20.0455 94.5043 20.267 95.0156 20.5909C95.5327 20.9148 95.956 21.3778 96.2855 21.9801C96.6151 22.5767 96.7798 23.3523 96.7798 24.3068V33H94.2912V31.2102H94.1889C94.0241 31.5398 93.777 31.8636 93.4474 32.1818C93.1179 32.5 92.6946 32.7642 92.1776 32.9744C91.6605 33.1847 91.0412 33.2898 90.3196 33.2898ZM90.8736 31.2443C91.5781 31.2443 92.1804 31.1051 92.6804 30.8267C93.1861 30.5483 93.5696 30.1847 93.831 29.7358C94.098 29.2812 94.2315 28.7955 94.2315 28.2784V26.5909C94.1406 26.6818 93.9645 26.767 93.7031 26.8466C93.4474 26.9205 93.1548 26.9858 92.8253 27.0426C92.4957 27.0937 92.1747 27.142 91.8622 27.1875C91.5497 27.2273 91.2884 27.2614 91.0781 27.2898C90.5838 27.3523 90.1321 27.4574 89.723 27.6051C89.3196 27.7528 88.9957 27.9659 88.7514 28.2443C88.5128 28.517 88.3935 28.8807 88.3935 29.3352C88.3935 29.9659 88.6264 30.4432 89.0923 30.767C89.5582 31.0852 90.152 31.2443 90.8736 31.2443ZM102.722 25.2273V33H100.174V19.9091H102.62V22.0398H102.782C103.083 21.3466 103.555 20.7898 104.197 20.3693C104.844 19.9489 105.66 19.7386 106.643 19.7386C107.535 19.7386 108.316 19.9261 108.987 20.3011C109.657 20.6705 110.177 21.2216 110.546 21.9545C110.915 22.6875 111.1 23.5937 111.1 24.6733V33H108.552V24.9801C108.552 24.0312 108.305 23.2898 107.81 22.7557C107.316 22.2159 106.637 21.946 105.773 21.946C105.183 21.946 104.657 22.0739 104.197 22.3295C103.742 22.5852 103.381 22.9602 103.114 23.4545C102.853 23.9432 102.722 24.5341 102.722 25.2273ZM119.418 33.2557C118.362 33.2557 117.418 32.9858 116.589 32.446C115.765 31.9006 115.117 31.125 114.646 30.1193C114.18 29.108 113.947 27.8949 113.947 26.4801C113.947 25.0653 114.183 23.8551 114.654 22.8494C115.131 21.8437 115.785 21.0739 116.614 20.5398C117.444 20.0057 118.384 19.7386 119.435 19.7386C120.248 19.7386 120.901 19.875 121.396 20.1477C121.896 20.4148 122.282 20.7273 122.555 21.0852C122.833 21.4432 123.049 21.7585 123.202 22.0312H123.356V15.5455H125.904V33H123.415V30.9631H123.202C123.049 31.2415 122.827 31.5597 122.538 31.9176C122.254 32.2756 121.862 32.5881 121.362 32.8551C120.862 33.1222 120.214 33.2557 119.418 33.2557ZM119.981 31.0824C120.714 31.0824 121.333 30.8892 121.839 30.5028C122.35 30.1108 122.737 29.5682 122.998 28.875C123.265 28.1818 123.398 27.375 123.398 26.4545C123.398 25.5455 123.268 24.75 123.006 24.0682C122.745 23.3864 122.362 22.8551 121.856 22.4744C121.35 22.0937 120.725 21.9034 119.981 21.9034C119.214 21.9034 118.575 22.1023 118.063 22.5C117.552 22.8977 117.165 23.4403 116.904 24.1278C116.648 24.8153 116.521 25.5909 116.521 26.4545C116.521 27.3295 116.651 28.1165 116.913 28.8153C117.174 29.5142 117.56 30.0682 118.072 30.4773C118.589 30.8807 119.225 31.0824 119.981 31.0824ZM136.097 33V15.5455H138.731V30.733H146.64V33H136.097ZM154.954 33.2642C153.727 33.2642 152.656 32.983 151.741 32.4205C150.826 31.858 150.116 31.071 149.61 30.0597C149.104 29.0483 148.852 27.8665 148.852 26.5142C148.852 25.1562 149.104 23.9687 149.61 22.9517C150.116 21.9347 150.826 21.1449 151.741 20.5824C152.656 20.0199 153.727 19.7386 154.954 19.7386C156.181 19.7386 157.252 20.0199 158.167 20.5824C159.082 21.1449 159.792 21.9347 160.298 22.9517C160.803 23.9687 161.056 25.1562 161.056 26.5142C161.056 27.8665 160.803 29.0483 160.298 30.0597C159.792 31.071 159.082 31.858 158.167 32.4205C157.252 32.983 156.181 33.2642 154.954 33.2642ZM154.962 31.125C155.758 31.125 156.417 30.9148 156.94 30.4943C157.462 30.0739 157.849 29.5142 158.099 28.8153C158.354 28.1165 158.482 27.3466 158.482 26.5057C158.482 25.6705 158.354 24.9034 158.099 24.2045C157.849 23.5 157.462 22.9347 156.94 22.5085C156.417 22.0824 155.758 21.8693 154.962 21.8693C154.161 21.8693 153.496 22.0824 152.968 22.5085C152.445 22.9347 152.056 23.5 151.8 24.2045C151.55 24.9034 151.425 25.6705 151.425 26.5057C151.425 27.3466 151.55 28.1165 151.8 28.8153C152.056 29.5142 152.445 30.0739 152.968 30.4943C153.496 30.9148 154.161 31.125 154.962 31.125ZM169.389 38.1818C168.349 38.1818 167.455 38.0455 166.705 37.7727C165.96 37.5 165.352 37.1392 164.881 36.6903C164.409 36.2415 164.057 35.75 163.824 35.2159L166.014 34.3125C166.168 34.5625 166.372 34.8267 166.628 35.1051C166.889 35.3892 167.241 35.6307 167.685 35.8295C168.134 36.0284 168.71 36.1278 169.415 36.1278C170.381 36.1278 171.179 35.892 171.81 35.4205C172.44 34.9545 172.756 34.2102 172.756 33.1875V30.6136H172.594C172.44 30.892 172.219 31.2017 171.929 31.5426C171.645 31.8835 171.253 32.179 170.753 32.429C170.253 32.679 169.602 32.804 168.801 32.804C167.767 32.804 166.835 32.5625 166.006 32.0795C165.182 31.5909 164.528 30.8722 164.045 29.9233C163.568 28.9687 163.33 27.7955 163.33 26.4034C163.33 25.0114 163.565 23.8182 164.037 22.8239C164.514 21.8295 165.168 21.0682 165.997 20.5398C166.827 20.0057 167.767 19.7386 168.818 19.7386C169.631 19.7386 170.287 19.875 170.787 20.1477C171.287 20.4148 171.676 20.7273 171.955 21.0852C172.239 21.4432 172.457 21.7585 172.611 22.0312H172.798V19.9091H175.295V33.2898C175.295 34.4148 175.034 35.3381 174.511 36.0597C173.989 36.7813 173.281 37.3153 172.389 37.6619C171.503 38.0085 170.503 38.1818 169.389 38.1818ZM169.364 30.6903C170.097 30.6903 170.716 30.5199 171.222 30.179C171.733 29.8324 172.119 29.3381 172.381 28.696C172.648 28.0483 172.781 27.2727 172.781 26.3693C172.781 25.4886 172.651 24.7131 172.389 24.0426C172.128 23.3722 171.744 22.8494 171.239 22.4744C170.733 22.0937 170.108 21.9034 169.364 21.9034C168.597 21.9034 167.957 22.1023 167.446 22.5C166.935 22.892 166.548 23.4261 166.287 24.1023C166.031 24.7784 165.903 25.5341 165.903 26.3693C165.903 27.2273 166.034 27.9801 166.295 28.6278C166.557 29.2756 166.943 29.7812 167.455 30.1449C167.972 30.5085 168.608 30.6903 169.364 30.6903ZM184.227 33.2642C183 33.2642 181.929 32.983 181.014 32.4205C180.099 31.858 179.389 31.071 178.884 30.0597C178.378 29.0483 178.125 27.8665 178.125 26.5142C178.125 25.1562 178.378 23.9687 178.884 22.9517C179.389 21.9347 180.099 21.1449 181.014 20.5824C181.929 20.0199 183 19.7386 184.227 19.7386C185.455 19.7386 186.526 20.0199 187.44 20.5824C188.355 21.1449 189.065 21.9347 189.571 22.9517C190.077 23.9687 190.33 25.1562 190.33 26.5142C190.33 27.8665 190.077 29.0483 189.571 30.0597C189.065 31.071 188.355 31.858 187.44 32.4205C186.526 32.983 185.455 33.2642 184.227 33.2642ZM184.236 31.125C185.031 31.125 185.69 30.9148 186.213 30.4943C186.736 30.0739 187.122 29.5142 187.372 28.8153C187.628 28.1165 187.756 27.3466 187.756 26.5057C187.756 25.6705 187.628 24.9034 187.372 24.2045C187.122 23.5 186.736 22.9347 186.213 22.5085C185.69 22.0824 185.031 21.8693 184.236 21.8693C183.435 21.8693 182.77 22.0824 182.241 22.5085C181.719 22.9347 181.33 23.5 181.074 24.2045C180.824 24.9034 180.699 25.6705 180.699 26.5057C180.699 27.3466 180.824 28.1165 181.074 28.8153C181.33 29.5142 181.719 30.0739 182.241 30.4943C182.77 30.9148 183.435 31.125 184.236 31.125Z" fill="#1A4F83"/>
</svg>
